<?xml version="1.0" encoding="utf-8"?>
<svg xmlns="http://www.w3.org/2000/svg" viewBox="316.052 184.578 43.6 43.6" width="43.6px" height="43.6px">
  <path d="M 359.652 184.578 L 359.652 206.378 L 348.752 217.278 L 337.852 228.178 L 326.952 217.278 L 337.852 206.378 L 337.852 206.478 L 337.852 206.378 L 359.652 184.578 Z" style="fill: rgb(255, 255, 255);" transform="matrix(1, 0, 0, 1, 0, 1.4210854715202004e-14)"/>
  <path d="M 359.652 206.378 L 359.652 228.178 L 348.752 217.278 L 359.652 206.378 Z" style="fill: rgb(255, 255, 255);" transform="matrix(1, 0, 0, 1, 0, 1.4210854715202004e-14)"/>
  <path d="M 337.852 206.378 L 326.952 217.278 L 316.052 228.178 L 316.052 184.578 L 326.952 195.478 L 337.852 206.378 Z" style="fill: rgb(255, 255, 255);" transform="matrix(1, 0, 0, 1, 0, 1.4210854715202004e-14)"/>
</svg>